<mxfile host="app.diagrams.net" modified="2023-11-05T10:43:35.385Z" agent="Mozilla/5.0 (Windows NT 10.0; Win64; x64) AppleWebKit/537.36 (KHTML, like Gecko) Chrome/118.0.0.0 Safari/537.36" version="21.7.2" etag="paQBlN1c5YQsKXEBqUl6" type="github">
  <diagram name="Page-1" id="NjDdYQc0pejZ8lQtci2K">
    <mxGraphModel>
      <root>
        <mxCell id="0" />
        <mxCell id="1" parent="0" />
      </root>
    </mxGraphModel>
  </diagram>
</mxfile>
